<svg width="32" height="32" viewBox="0 0 32 32" fill="none" xmlns="http://www.w3.org/2000/svg">
<path d="M10.667 26.3506C11.578 26.3508 12.3162 27.089 12.3164 28C12.3162 28.911 11.578 29.6502 10.667 29.6504H4C3.08885 29.6504 2.34979 28.9111 2.34961 28C2.34979 27.0889 3.08885 26.3506 4 26.3506H10.667ZM16.0137 26.3506C16.9247 26.3508 17.6629 27.089 17.6631 28C17.6629 28.911 16.9247 29.6502 16.0137 29.6504H16C15.0888 29.6504 14.3498 28.9111 14.3496 28C14.3498 27.0889 15.0888 26.3506 16 26.3506H16.0137ZM25.8662 19.6836C26.2124 19.6836 26.5718 19.6821 26.877 19.707C27.1607 19.7302 27.5068 19.7826 27.8662 19.9365L28.0215 20.0088L28.2266 20.124C28.6272 20.3698 28.9643 20.7068 29.21 21.1074L29.3252 21.3125L29.3975 21.4678C29.5512 21.827 29.6028 22.1734 29.626 22.457C29.6509 22.762 29.6504 23.1209 29.6504 23.4668V25.8672C29.6504 26.2131 29.6509 26.572 29.626 26.877C29.5995 27.2013 29.536 27.6077 29.3252 28.0215C29.0392 28.5826 28.5826 29.0392 28.0215 29.3252C27.6076 29.536 27.2013 29.6004 26.877 29.627C26.5719 29.6519 26.2123 29.6504 25.8662 29.6504H23.4668C23.1208 29.6504 22.762 29.6518 22.457 29.627C22.1327 29.6005 21.7264 29.536 21.3125 29.3252C20.7513 29.0392 20.2948 28.5826 20.0088 28.0215C19.7979 27.6076 19.7335 27.2013 19.707 26.877C19.6821 26.572 19.6836 26.2131 19.6836 25.8672V23.4668C19.6836 23.1209 19.6821 22.762 19.707 22.457C19.7335 22.1327 19.798 21.7264 20.0088 21.3125L20.124 21.1074C20.4106 20.6401 20.8214 20.2591 21.3125 20.0088L21.4668 19.9365C21.8263 19.7825 22.1732 19.7302 22.457 19.707C22.762 19.6821 23.1208 19.6836 23.4668 19.6836H25.8662ZM22.998 22.9854C22.9938 22.9854 22.9895 22.9853 22.9854 22.9854C22.9853 22.9894 22.9854 22.9939 22.9854 22.998C22.9833 23.1268 22.9834 23.2766 22.9834 23.4668V25.8672C22.9834 26.0574 22.9833 26.2072 22.9854 26.3359C22.9854 26.3398 22.9853 26.3439 22.9854 26.3477C22.9895 26.3477 22.9938 26.3486 22.998 26.3486C23.1269 26.3507 23.2764 26.3506 23.4668 26.3506H25.8662C26.0565 26.3506 26.2062 26.3507 26.335 26.3486C26.3388 26.3486 26.3429 26.3477 26.3467 26.3477C26.3467 26.3439 26.3476 26.3398 26.3477 26.3359C26.3497 26.2072 26.3496 26.0574 26.3496 25.8672V23.4668C26.3496 23.2766 26.3497 23.1268 26.3477 22.998C26.3476 22.9939 26.3468 22.9894 26.3467 22.9854C26.3429 22.9853 26.3388 22.9854 26.335 22.9854C26.2062 22.9833 26.0565 22.9834 25.8662 22.9834H23.4668C23.2764 22.9834 23.1269 22.9833 22.998 22.9854ZM6 21.0166C6.91127 21.0166 7.65039 21.7557 7.65039 22.667C7.65021 23.5781 6.91116 24.3174 6 24.3174H4C3.08885 24.3174 2.34979 23.5781 2.34961 22.667C2.34961 21.7557 3.08874 21.0166 4 21.0166H6ZM10.6797 21.0166C11.591 21.0166 12.3301 21.7557 12.3301 22.667C12.3299 23.5781 11.5908 24.3174 10.6797 24.3174H10.667C9.75584 24.3174 9.01678 23.5781 9.0166 22.667C9.0166 21.7557 9.75573 21.0166 10.667 21.0166H10.6797ZM16 14.3506C16.9112 14.3506 17.6502 15.0889 17.6504 16V22.667C17.6502 23.5781 16.9112 24.3174 16 24.3174C15.0888 24.3174 14.3498 23.5781 14.3496 22.667V17.6504H9.33301C8.422 17.6502 7.68377 16.911 7.68359 16C7.68377 15.089 8.422 14.3508 9.33301 14.3506H16ZM4.01367 14.3506C4.92468 14.3508 5.66291 15.089 5.66309 16C5.66291 16.911 4.92468 17.6502 4.01367 17.6504H4C3.08885 17.6504 2.34979 16.9111 2.34961 16C2.34979 15.0889 3.08885 14.3506 4 14.3506H4.01367ZM23.333 14.3506C24.2442 14.3506 24.9832 15.0889 24.9834 16C24.9832 16.9111 24.2442 17.6504 23.333 17.6504H20.667C19.7558 17.6504 19.0168 16.9111 19.0166 16C19.0168 15.0889 19.7558 14.3506 20.667 14.3506H23.333ZM28.0137 14.3506C28.9247 14.3508 29.6629 15.089 29.6631 16C29.6629 16.911 28.9247 17.6502 28.0137 17.6504H28C27.0888 17.6504 26.3498 16.9111 26.3496 16C26.3498 15.0889 27.0888 14.3506 28 14.3506H28.0137ZM8.5332 2.35059C8.87917 2.35059 9.23795 2.34913 9.54297 2.37402C9.82688 2.39722 10.1736 2.44947 10.5332 2.60352L10.6875 2.67578L10.8936 2.79102C11.2937 3.03659 11.6304 3.37326 11.876 3.77344L11.9912 3.97949L12.0635 4.13379C12.2174 4.49328 12.2698 4.84018 12.293 5.12402C12.3178 5.42897 12.3164 5.78794 12.3164 6.13379V8.5332C12.3164 8.87925 12.3179 9.23893 12.293 9.54395C12.2664 9.86823 12.202 10.2747 11.9912 10.6885C11.7052 11.2495 11.2486 11.7063 10.6875 11.9922C10.2737 12.2029 9.86722 12.2665 9.54297 12.293C9.23796 12.3179 8.87917 12.3174 8.5332 12.3174H6.13379C5.78766 12.3174 5.42815 12.3179 5.12305 12.293C4.79874 12.2665 4.39236 12.203 3.97852 11.9922C3.41739 11.7062 2.96081 11.2496 2.6748 10.6885C2.46399 10.2747 2.40055 9.86823 2.37402 9.54395C2.3491 9.23893 2.34961 8.87925 2.34961 8.5332V6.13379C2.34961 5.78793 2.34916 5.42897 2.37402 5.12402C2.40051 4.79981 2.46412 4.39326 2.6748 3.97949L2.79004 3.77344C3.07656 3.30637 3.48765 2.92603 3.97852 2.67578L4.13379 2.60352C4.49318 2.44961 4.83925 2.39722 5.12305 2.37402C5.42815 2.3491 5.78765 2.35059 6.13379 2.35059H8.5332ZM16 1.0166C16.9113 1.0166 17.6504 1.75572 17.6504 2.66699V10.667C17.6502 11.5781 16.9112 12.3174 16 12.3174C15.0888 12.3174 14.3498 11.5781 14.3496 10.667V2.66699C14.3496 1.75573 15.0887 1.01661 16 1.0166ZM25.8662 2.35059C26.2124 2.35059 26.5718 2.34909 26.877 2.37402C27.1608 2.39722 27.5068 2.4496 27.8662 2.60352L28.0215 2.67578L28.2266 2.79102C28.6269 3.03666 28.9643 3.37305 29.21 3.77344L29.3252 3.97949L29.3975 4.13379C29.5513 4.4932 29.6028 4.84024 29.626 5.12402C29.6508 5.42897 29.6504 5.78793 29.6504 6.13379V8.5332C29.6504 8.87925 29.6509 9.23893 29.626 9.54395C29.5994 9.86823 29.536 10.2747 29.3252 10.6885C29.0392 11.2496 28.5826 11.7062 28.0215 11.9922C27.6076 12.203 27.2013 12.2665 26.877 12.293C26.5719 12.3179 26.2123 12.3174 25.8662 12.3174H23.4668C23.1208 12.3174 22.762 12.3179 22.457 12.293C22.1328 12.2665 21.7263 12.2029 21.3125 11.9922C20.7514 11.7063 20.2948 11.2495 20.0088 10.6885C19.798 10.2747 19.7336 9.86823 19.707 9.54395C19.6821 9.23893 19.6836 8.87925 19.6836 8.5332V6.13379C19.6836 5.78794 19.6822 5.42897 19.707 5.12402C19.7335 4.79974 19.798 4.39336 20.0088 3.97949L20.124 3.77344C20.4106 3.30636 20.8215 2.92597 21.3125 2.67578L21.4668 2.60352C21.8264 2.44948 22.1731 2.39722 22.457 2.37402C22.762 2.34913 23.1208 2.35059 23.4668 2.35059H25.8662ZM5.66504 5.65234C5.66086 5.65241 5.65643 5.65227 5.65234 5.65234C5.65228 5.65642 5.65241 5.66087 5.65234 5.66504C5.65032 5.79382 5.65039 5.9435 5.65039 6.13379V8.5332C5.65039 8.72337 5.65032 8.87324 5.65234 9.00195C5.65239 9.00571 5.65228 9.01 5.65234 9.01367C5.65644 9.01374 5.66085 9.01458 5.66504 9.01465C5.79382 9.01667 5.94348 9.0166 6.13379 9.0166H8.5332C8.72364 9.0166 8.87311 9.01667 9.00195 9.01465C9.0059 9.01459 9.00981 9.01374 9.01367 9.01367C9.01373 9.01 9.01455 9.00571 9.01465 9.00195C9.01667 8.87324 9.0166 8.72336 9.0166 8.5332V6.13379C9.0166 5.9435 9.01667 5.79382 9.01465 5.66504C9.01458 5.66087 9.01378 5.65643 9.01367 5.65234C9.00981 5.65228 9.0059 5.65241 9.00195 5.65234C8.8731 5.65032 8.72365 5.65039 8.5332 5.65039H6.13379C5.94348 5.65039 5.79382 5.65032 5.66504 5.65234ZM22.998 5.65234C22.9938 5.65241 22.9895 5.65227 22.9854 5.65234C22.9853 5.65642 22.9854 5.66087 22.9854 5.66504C22.9833 5.79382 22.9834 5.9435 22.9834 6.13379V8.5332C22.9834 8.72336 22.9833 8.87324 22.9854 9.00195C22.9854 9.00571 22.9853 9.01 22.9854 9.01367C22.9895 9.01374 22.9938 9.01458 22.998 9.01465C23.1269 9.01667 23.2764 9.0166 23.4668 9.0166H25.8662C26.0565 9.0166 26.2062 9.01667 26.335 9.01465C26.3388 9.01459 26.3429 9.01374 26.3467 9.01367C26.3467 9.01 26.3476 9.00572 26.3477 9.00195C26.3497 8.87324 26.3496 8.72337 26.3496 8.5332V6.13379C26.3496 5.9435 26.3497 5.79382 26.3477 5.66504C26.3476 5.66087 26.3468 5.65643 26.3467 5.65234C26.3429 5.65228 26.3388 5.6524 26.335 5.65234C26.2062 5.65032 26.0565 5.65039 25.8662 5.65039H23.4668C23.2764 5.65039 23.1269 5.65032 22.998 5.65234Z" fill="white" style="fill:white;fill-opacity:1;"/>
</svg>
