<svg width="32" height="32" viewBox="0 0 32 32" fill="none" xmlns="http://www.w3.org/2000/svg">
<path d="M21.2445 2.18807C21.0465 1.67315 20.5517 1.33337 20 1.33337C19.4483 1.33337 18.9536 1.67315 18.7556 2.18807L17.1841 6.27396C16.7835 7.31535 16.6577 7.61545 16.4855 7.85757C16.3128 8.10051 16.1005 8.31277 15.8576 8.48552C15.6154 8.65768 15.3154 8.78355 14.274 9.18408L10.1881 10.7556C9.67315 10.9536 9.33337 11.4483 9.33337 12C9.33337 12.5517 9.67315 13.0465 10.1881 13.2445L14.274 14.816C15.3154 15.2165 15.6154 15.3424 15.8576 15.5146C16.1005 15.6873 16.3128 15.8996 16.4855 16.1425C16.6577 16.3846 16.7835 16.6847 17.1841 17.7261L18.7556 21.812C18.9536 22.3269 19.4483 22.6667 20 22.6667C20.5517 22.6667 21.0465 22.3269 21.2445 21.812L22.816 17.7261C23.2165 16.6847 23.3424 16.3846 23.5146 16.1425C23.6873 15.8996 23.8996 15.6873 24.1425 15.5146C24.3846 15.3424 24.6847 15.2165 25.7261 14.816L29.812 13.2445C30.3269 13.0465 30.6667 12.5517 30.6667 12C30.6667 11.4483 30.3269 10.9536 29.812 10.7556L25.7261 9.18408C24.6847 8.78355 24.3846 8.65768 24.1425 8.48552C23.8996 8.31277 23.6873 8.10051 23.5146 7.85757C23.3424 7.61545 23.2165 7.31535 22.816 6.27396L21.2445 2.18807Z" fill="white" style="fill:white;fill-opacity:1;"/>
<path d="M9.85928 16.7371C9.63342 16.2854 9.17174 16 8.66671 16C8.16168 16 7.69999 16.2854 7.47414 16.7371L6.42819 18.829C6.05155 19.5823 5.93677 19.799 5.79732 19.98C5.65744 20.1614 5.49476 20.3241 5.3133 20.464C5.13238 20.6034 4.9156 20.7182 4.16231 21.0949L2.07042 22.1408C1.61871 22.3667 1.33337 22.8283 1.33337 23.3334C1.33337 23.8384 1.61871 24.3001 2.07042 24.5259L4.16231 25.5719C4.9156 25.9485 5.13238 26.0633 5.3133 26.2028C5.49476 26.3426 5.65744 26.5053 5.79732 26.6868C5.93677 26.8677 6.05155 27.0845 6.42819 27.8378L7.47414 29.9297C7.69999 30.3814 8.16168 30.6667 8.66671 30.6667C9.17174 30.6667 9.63342 30.3814 9.85928 29.9297L10.9052 27.8378C11.2819 27.0845 11.3966 26.8677 11.5361 26.6868C11.676 26.5053 11.8387 26.3426 12.0201 26.2028C12.201 26.0633 12.4178 25.9485 13.1711 25.5719L15.263 24.5259C15.7147 24.3001 16 23.8384 16 23.3334C16 22.8283 15.7147 22.3667 15.263 22.1408L13.1711 21.0949C12.4178 20.7182 12.201 20.6034 12.0201 20.464C11.8387 20.3241 11.676 20.1614 11.5361 19.98C11.3966 19.799 11.2819 19.5823 10.9052 18.829L9.85928 16.7371Z" fill="white" style="fill:white;fill-opacity:1;"/>
</svg>
