<svg class="Footer_logo__o21gC" width="1452" height="253" viewBox="0 0 1452 253" fill="none" xmlns="http://www.w3.org/2000/svg" role="img" aria-label="Monzo Bank Logo"><path d="M0.832448 246.432V6.60055H65.7161V38.6625C80.6045 14.0273 102.478 2.07202 131.887 2.07202C161.296 2.07202 183.536 14.5708 199.344 40.474C224.709 14.2085 244.192 2.07202 274.52 2.07202C329.295 2.07202 360.174 32.5037 360.174 88.2952V246.432H290.328V116.553C290.328 83.0421 283.159 67.8263 256.323 67.8263C229.488 67.8263 214.6 84.3101 214.6 116.553V246.432H144.385V116.553C144.385 83.0421 137.217 67.8263 110.381 67.8263C83.5455 67.8263 68.6571 84.3101 68.6571 116.553V246.432H0.648743H0.832448Z" fill="#FF4F40"></path><path d="M442.896 37.9345C467.342 13.8427 499.508 0.438232 532.593 0.438232C567.884 0.438232 598.212 12.5747 622.842 35.2173C648.759 59.3091 662.728 92.458 662.728 124.882C662.728 161.11 650.413 190.999 625.967 215.091C600.969 239.726 570.273 252.587 533.512 252.587C496.751 252.587 466.423 240.088 441.609 214.185C418.082 190.093 405.767 159.299 405.767 125.788C405.767 92.2768 418.817 61.4828 442.896 37.7533V37.9345ZM533.88 185.746C565.678 185.746 591.411 159.48 591.411 126.875C591.411 94.2694 565.494 67.4605 533.88 67.4605C502.265 67.4605 476.348 93.7259 476.348 126.875C476.348 160.024 502.633 185.746 533.88 185.746Z" fill="#FF4F40"></path><path d="M708.122 246.43V6.59884H776.131L775.212 38.6608C790.1 14.569 812.892 2.07031 845.058 2.07031C895.421 2.07031 927.955 33.4077 927.955 88.2935V246.43H856.454V116.552C856.454 83.0404 849.286 67.8246 821.531 67.8246C793.776 67.8246 778.52 84.3084 778.52 116.552V246.43H708.306H708.122Z" fill="#FF4F40"></path><path d="M1231.6 37.9345C1256.05 13.8427 1288.22 0.438232 1321.3 0.438232C1356.59 0.438232 1386.92 12.5747 1411.55 35.2173C1437.47 59.3091 1451.44 92.458 1451.44 124.882C1451.44 161.11 1439.12 190.999 1414.67 215.091C1389.68 239.726 1358.98 252.587 1322.22 252.587C1285.46 252.587 1255.13 240.088 1230.32 214.185C1206.79 190.093 1194.47 159.299 1194.47 125.788C1194.47 92.2768 1207.52 61.4828 1231.6 37.7533V37.9345ZM1322.59 185.746C1354.39 185.746 1380.12 159.48 1380.12 126.875C1380.12 94.2694 1354.2 67.4605 1322.59 67.4605C1290.97 67.4605 1265.06 93.7259 1265.06 126.875C1265.06 160.024 1291.34 185.746 1322.59 185.746Z" fill="#FF4F40"></path><path d="M979.983 246.43V196.435L1080.16 68.7308H979.983V6.59937H1160.85V63.2966L1072.44 184.299H1162.69V246.43H980.167H979.983Z" fill="#FF4F40"></path><title>Monzo Logo</title></svg>
